<svg width="64" height="64" viewBox="0 0 64 64" fill="none" xmlns="http://www.w3.org/2000/svg">
  <circle cx="32" cy="32" r="30" fill="#121212"/>
  <circle cx="32" cy="32" r="29" stroke="#E0E0E0" stroke-opacity="0.9" stroke-width="2"/>
  <path d="M39.8 18.8C37.7 17.35 34.9 16.55 31.7 16.55C25.75 16.55 21.85 19.65 21.85 24.05C21.85 28.2 25 30.15 30.9 32.25C35.35 33.85 37.1 35.05 37.1 37.35C37.1 39.75 34.95 41.25 31.55 41.25C28.3 41.25 25.45 40.15 22.9 38.15L20.55 42.45C23.2 44.7 27.15 46 31.35 46C38.1 46 42.65 42.55 42.65 37.15C42.65 32.8 39.8 30.55 33.15 28.3C29.05 26.9 27.35 25.95 27.35 23.9C27.35 21.95 29.05 20.95 31.75 20.95C34.2 20.95 36.15 21.55 38.05 22.85L39.8 18.8Z" fill="#E0E0E0"/>
</svg>
